<svg width="1440" height="1024" viewBox="0 0 1440 1024" fill="none" xmlns="http://www.w3.org/2000/svg">
<g clip-path="url(#clip0_38_48535)">
<rect width="1440" height="1024" fill="white"/>
<path d="M63.5 165.5L117.5 96.0001C95.8333 208.5 58.6 437.5 83 453.5C107.4 469.5 104.167 449.833 99.5 438C118.833 281.833 164.8 -12.9999 194 57.0001C180.333 166.167 163.5 394 205.5 432L287 133.5C285.167 276.833 303.4 506.6 391 279C478.6 51.4 534.167 169.833 551 257.5C491.167 271 380.8 314.7 418 381.5C457.667 363.667 538.4 315.4 544 265L519.5 418C533.667 401.833 563.6 360.9 570 326.5L609.5 274.5C601.5 395.5 572.3 641.5 519.5 657.5C453.5 677.5 511.5 491.5 575.5 463.5C626.7 441.1 634.167 377.5 631.5 348.5L599.5 199.5L817 191L832 250.5L762 257.5C725 278.667 654 332.1 666 376.5C681 432 759 297.5 772 270.5C782.4 248.9 793.333 257.833 797.5 265L772 403.5C789.333 408.333 824.8 404.1 828 348.5C831.2 292.9 546.667 432.667 404 509.5L728.5 560.5C688.833 573 609.5 597.7 609.5 596.5C609.5 595.3 685.833 607.667 724 614L589 644.5L728.5 651.5L772 470L799.5 480C789.833 604.667 757.4 876.3 705 965.5C652.6 1054.7 680.167 1002.67 700.5 965.5C658.333 931.167 600.2 837.1 705 735.5C809.8 633.9 885 576.5 909.5 560.5L652 515L666 470C741.5 456 900.5 430.3 932.5 439.5C964.5 448.7 956.833 537.333 949 580.5L887.5 735.5C906.167 771.5 954.5 815.2 998.5 702C1042.5 588.8 1038.17 592.167 1030.5 608C1007.33 601 942.7 598.5 869.5 644.5C796.3 690.5 830.667 678.333 857 666.5L1065.5 569.5L1049 662L1119 618C1143.83 559.167 1189.3 437.7 1172.5 422.5C1155.7 407.3 1137.5 413.167 1130.5 418C1108.5 537.167 1071.8 783.4 1101 815C1130.2 846.6 1106.5 828.167 1091 815L1141 632.5C1153.83 622.667 1178.1 626.8 1172.5 722C1166.9 817.2 1175.83 784.333 1181 756L1214.5 722L1219 565L1258 574.5C1249.17 650.333 1235.5 805.3 1251.5 818.5C1271.5 835 1280 563 1300.5 590.5C1321 618 1335 769 1358 735.5C1376.4 708.7 1402.33 685.667 1413 677.5" stroke="#FF0000" stroke-width="50" stroke-linecap="round"/>
</g>
<defs>
<clipPath id="clip0_38_48535">
<rect width="1440" height="1024" fill="white"/>
</clipPath>
</defs>
</svg>
